
<svg xmlns="http://www.w3.org/2000/svg" viewBox="0 0 55 55">
	<style type="text/css">
		.st0{fill:#1B73E8;filter:url(#defapp-filter-1);}
		.st1{fill:#E43B2E;filter:url(#defapp-filter-1);}
		.st2{fill:#FCC628;filter:url(#defapp-filter-1);}
		.st3{fill:#279A47;filter:url(#defapp-filter-1);}
	</style>
	<filter filterUnits="objectBoundingBox" id="defapp-filter-1">
		<feOffset dx="0" dy=".5" in="SourceAlpha" result="defappShadowOffsetOuter1"></feOffset>
		<feGaussianBlur stdDeviation=".5" in="defappShadowOffsetOuter1" result="defappShadowBlurOuter1"></feGaussianBlur>
		<feColorMatrix values="0 0 0 0 0   0 0 0 0 0   0 0 0 0 0  0 0 0 0.5 0" type="matrix" in="defappShadowBlurOuter1" result="defappShadowMatrixOuter1"></feColorMatrix>
		<feMerge>
			<feMergeNode in="defappShadowMatrixOuter1"/>
			<feMergeNode in="SourceGraphic"/>
		</feMerge>
	</filter>
	<circle class="st0" cx="26.9" cy="25.5" r="11"/>
	<path class="st1" d="M14.8,19.3c2.3-4.4,6.8-7.4,12.1-7.4h20.3C42.8,5.3,35.4,1,26.9,1c-4.4,0-8.5,1.2-12.1,3.2V19.3z"/>
	<path class="st2" d="M51.3,25.6c0-4.4-1.1-8.6-3.2-12.2h-15c4.4,2.3,7.4,6.8,7.4,12.1c0,3.6-1.4,7-4,9.6c-1.3,1.3-2.9,2.3-4.6,3
		L47,53.2l7.6-7.6l-7-7C50,34.7,51.3,30.3,51.3,25.6z"/>
	<path class="st3" d="M13.3,25.5c0-0.1,0-0.2,0-0.3V5.1C6.7,9.5,2.4,17,2.4,25.5C2.4,39,13.4,50,26.9,50c1.6,0,3.3-0.2,4.8-0.5
		L17.5,35.4C14.9,32.9,13.3,29.4,13.3,25.5z"/>
</svg>
