
<svg xmlns="http://www.w3.org/2000/svg" viewBox="0 0 55 55">
	<style type="text/css">
		.st0{fill:url(#SVGID_1_);}
		.st1{fill:url(#SVGID_2_);}
		.st2{fill:url(#SVGID_3_);}
		.st3{fill:url(#SVGID_4_);}
		.st4{fill:url(#SVGID_5_);}
		.st5{fill:url(#SVGID_6_);}
		.st6{fill:url(#SVGID_7_);}
		.st7{fill:url(#SVGID_8_);}
		.st8{fill:url(#SVGID_9_);}
		.st9{fill:url(#SVGID_10_);}
		.st10{fill:url(#SVGID_11_);}
		.st11{fill:url(#SVGID_12_);}
		.st12{fill:url(#SVGID_13_);}
		.st13{fill:url(#SVGID_14_);}
		.st14{fill:url(#SVGID_15_);}
		.st15{fill:url(#SVGID_16_);}
		.st16{fill:url(#SVGID_17_);}
		.st17{fill:url(#SVGID_18_);}
		.st18{fill:url(#SVGID_19_);}
		.st19{fill:url(#SVGID_20_);}
		.st20{fill:url(#SVGID_21_);}
		.st21{fill:url(#SVGID_22_);}
		.st22{fill:url(#SVGID_23_);}
		.st23{fill:url(#SVGID_24_);}
		.st24{fill:url(#SVGID_25_);}
		.st25{fill:url(#SVGID_26_);}
		.st26{fill:url(#SVGID_27_);}
		.st27{fill:url(#SVGID_28_);}
		.st28{fill:url(#SVGID_29_);}
		.st29{opacity:0.1;fill:url(#SVGID_30_);enable-background:new    ;}
		.st30{opacity:0.5;fill:url(#SVGID_31_);enable-background:new    ;}
		.st31{opacity:0.5;fill:url(#SVGID_32_);enable-background:new    ;}
		.st32{opacity:0.5;fill:url(#SVGID_33_);enable-background:new    ;}
		.st33{fill:url(#SVGID_34_);}
		.st34{opacity:0.1;fill:url(#SVGID_35_);enable-background:new    ;}
		.st35{fill:url(#SVGID_36_);}
	</style>
	<radialGradient id="SVGID_1_" cx="-1271.722" cy="-297.9832" r="3.6185" gradientTransform="matrix(6.7114 0 0 2.5993 8562.5244 818.857)" gradientUnits="userSpaceOnUse">
		<stop  offset="0.466" style="stop-color:#000000;stop-opacity:0.8"/>
		<stop  offset="0.508" style="stop-color:#000000;stop-opacity:0.733"/>
		<stop  offset="0.964" style="stop-color:#000000;stop-opacity:0"/>
	</radialGradient>
	<ellipse class="st0" cx="27.5" cy="44.3" rx="24.9" ry="9.7"/>
	<linearGradient id="SVGID_2_" gradientUnits="userSpaceOnUse" x1="-1251.944" y1="-1040.3264" x2="-1252.2734" y2="-1039.4821" gradientTransform="matrix(6.7114 0 0 -6.7114 8411.2832 -6968.4941)">
		<stop  offset="1.100000e-02" style="stop-color:#941F21"/>
		<stop  offset="0.472" style="stop-color:#E36126"/>
		<stop  offset="1" style="stop-color:#F0BB62"/>
	</linearGradient>
	<path class="st1" d="M9.1,8.4C9.1,8.3,9.1,8.6,9,8.5C8.6,7.8,8.3,6.6,8.3,5.8c0,0-0.6,0.4-1,1.6C7.2,7.7,7.1,7.8,7.1,7.9
		c0,0,0-0.4,0-0.4C7,7.7,6.8,8,6.7,8.3C6.7,8.5,6.6,8.6,6.5,8.9c0,0.1,0-0.3,0-0.3c-0.5,1.4-1,3.4-0.7,6c2.4-2.1,5.7-3.7,5.7-3.7
		C11.2,10.7,10,9.7,9.1,8.4z"/>
	<linearGradient id="SVGID_3_" gradientUnits="userSpaceOnUse" x1="-356.4465" y1="149.5686" x2="-356.4465" y2="146.1262" gradientTransform="matrix(6.4919 1.7023 1.7023 -6.4919 2066.3105 1595.0487)">
		<stop  offset="5.600001e-02" style="stop-color:#DC7327"/>
		<stop  offset="1" style="stop-color:#EEBC89"/>
	</linearGradient>
	<path class="st2" d="M2.9,29.9c0-0.4,1-8.4,4.7-11.2c3.2-2.3,0.7-1.5-0.5-1.4c-1.3,0.1-2,0.9-1.7,0.6c0,0,0,0,0,0
		C5.3,17.9,2.3,20.4,2.9,29.9L2.9,29.9z"/>
	<linearGradient id="SVGID_4_" gradientUnits="userSpaceOnUse" x1="-1273.6072" y1="-1017.489" x2="-1274.7711" y2="-1019.3846" gradientTransform="matrix(6.6423 -0.5376 -0.6369 -7.8705 7819.3271 -8676.9482)">
		<stop  offset="5.600001e-02" style="stop-color:#DC7327"/>
		<stop  offset="1" style="stop-color:#EDBD6B"/>
	</linearGradient>
	<path class="st3" d="M2.5,23.6c0,0,2.2-7,6.6-6.9c2.9,0,0.6-2.5-0.3-2.9c-0.9-0.4-1.2-0.4-1.4-0.2C7.1,13.9,4.2,13.8,2.5,23.6z"/>
	<radialGradient id="SVGID_5_" cx="-1246.9811" cy="-1038.9988" r="1.3545" gradientTransform="matrix(6.7114 0 0 -6.7114 8411.2832 -6968.4941)" gradientUnits="userSpaceOnUse">
		<stop  offset="0.257" style="stop-color:#FFE300"/>
		<stop  offset="0.336" style="stop-color:#FCD800"/>
		<stop  offset="0.469" style="stop-color:#F8C91E"/>
		<stop  offset="0.643" style="stop-color:#EDA524"/>
		<stop  offset="0.847" style="stop-color:#E37B28"/>
		<stop  offset="1" style="stop-color:#DD5A26"/>
	</radialGradient>
	<path class="st4" d="M43.1,6c0,0,2.1,1,3.4,3.2c1.1,1.8,0.6,4.1-0.4,3.7C45.1,12.5,43.1,6,43.1,6L43.1,6z"/>
	<radialGradient id="SVGID_6_" cx="-1246.4674" cy="-1040.0433" r="0.7076" gradientTransform="matrix(6.7114 0 0 -6.7114 8411.2832 -6968.4941)" gradientUnits="userSpaceOnUse">
		<stop  offset="0.126" style="stop-color:#941F21"/>
		<stop  offset="0.343" style="stop-color:#9E2922"/>
		<stop  offset="0.73" style="stop-color:#C24028"/>
		<stop  offset="1" style="stop-color:#DC5726"/>
	</radialGradient>
	<path class="st5" d="M46.7,13.2C47.3,8.7,43.1,6,43.1,6s0.3,1.5,0.6,4.9C44.1,14.9,46.4,15.3,46.7,13.2L46.7,13.2z"/>
	<radialGradient id="SVGID_7_" cx="-1247.3738" cy="-1045.1948" r="0.6293" gradientTransform="matrix(6.7114 0 0 -6.7114 8411.2832 -6968.4941)" gradientUnits="userSpaceOnUse">
		<stop  offset="0" style="stop-color:#431413"/>
		<stop  offset="0.164" style="stop-color:#631E1C"/>
		<stop  offset="0.332" style="stop-color:#832320"/>
		<stop  offset="0.484" style="stop-color:#9C2222"/>
		<stop  offset="0.615" style="stop-color:#AC2023"/>
		<stop  offset="0.708" style="stop-color:#B21F24"/>
		<stop  offset="0.999" style="stop-color:#AA1F24"/>
		<stop  offset="1" style="stop-color:#A91F24"/>
	</radialGradient>
	<path class="st6" d="M32.6,47.7c7.6,1.6,13.3-4.8,9.2-6.3C38.1,40,29,47,32.6,47.7z"/>
	<radialGradient id="SVGID_8_" cx="-1246.1553" cy="-1043.9929" r="0.6966" gradientTransform="matrix(6.7114 0 0 -6.7114 8411.2832 -6968.4941)" gradientUnits="userSpaceOnUse">
		<stop  offset="0.126" style="stop-color:#941F21"/>
		<stop  offset="0.343" style="stop-color:#9E2922"/>
		<stop  offset="0.73" style="stop-color:#C24028"/>
		<stop  offset="1" style="stop-color:#DC5726"/>
	</radialGradient>
	<path class="st7" d="M42.5,41.6c7.6-1.6,10.2-9.8,5.8-9.6C44.4,32.3,38.9,42.4,42.5,41.6z"/>
	<radialGradient id="SVGID_9_" cx="-1245.8147" cy="-1041.9468" r="0.6294" gradientTransform="matrix(6.7114 0 0 -6.7114 8411.2832 -6968.4941)" gradientUnits="userSpaceOnUse">
		<stop  offset="0.126" style="stop-color:#941F21"/>
		<stop  offset="0.343" style="stop-color:#9E2922"/>
		<stop  offset="0.73" style="stop-color:#C24028"/>
		<stop  offset="1" style="stop-color:#DC5726"/>
	</radialGradient>
	<path class="st8" d="M49.2,28.9c5-3.6,2.6-10,2.6-10s-1.1,3.3-2.1,7.2C48.8,29.9,46.3,31,49.2,28.9z"/>
	<radialGradient id="SVGID_10_" cx="-1246.0015" cy="-1040.4501" r="0.7864" gradientTransform="matrix(6.7114 0 0 -6.7114 8411.2832 -6968.4941)" gradientUnits="userSpaceOnUse">
		<stop  offset="0" style="stop-color:#941F21"/>
		<stop  offset="0.638" style="stop-color:#C13F28"/>
		<stop  offset="1" style="stop-color:#DC5726"/>
	</radialGradient>
	<path class="st9" d="M50.7,17.7c-0.5-6.1-4.3-9.3-4.3-9.3s0.4,2.1,0.9,4.9C48,17.3,51,21.4,50.7,17.7L50.7,17.7z"/>
	<radialGradient id="SVGID_11_" cx="-1252.0083" cy="-1055.347" r="6.9669" gradientTransform="matrix(6.3141 0 0 -5.9483 7932.7324 -6273.4722)" gradientUnits="userSpaceOnUse">
		<stop  offset="0" style="stop-color:#52C4F1"/>
		<stop  offset="7.700000e-02" style="stop-color:#45BBEC"/>
		<stop  offset="0.182" style="stop-color:#00A9DC"/>
		<stop  offset="0.376" style="stop-color:#2276B8"/>
		<stop  offset="0.501" style="stop-color:#035495"/>
		<stop  offset="0.75" style="stop-color:#1D204E"/>
	</radialGradient>
	<path class="st10" d="M27.4,49c13.3,0,24-10.8,24-24S40.7,1,27.4,1s-24,10.8-24,24C3.4,38.3,14.2,49,27.4,49L27.4,49z"/>
	<radialGradient id="SVGID_12_" cx="-1247.481" cy="-1045.4207" r="6.8271" gradientTransform="matrix(6.7114 0 0 -6.5846 8411.2832 -6873.313)" gradientUnits="userSpaceOnUse">
		<stop  offset="0.119" style="stop-color:#FFFFFF"/>
		<stop  offset="0.122" style="stop-color:#FFFFFA"/>
		<stop  offset="0.25" style="stop-color:#FFE560"/>
		<stop  offset="0.287" style="stop-color:#FFDF56"/>
		<stop  offset="0.347" style="stop-color:#F8D03B"/>
		<stop  offset="0.406" style="stop-color:#F0BE1B"/>
		<stop  offset="0.473" style="stop-color:#EB9D23"/>
		<stop  offset="0.548" style="stop-color:#E57C27"/>
		<stop  offset="0.765" style="stop-color:#DD5626"/>
		<stop  offset="0.903" style="stop-color:#C33A28"/>
		<stop  offset="1" style="stop-color:#B02228"/>
	</radialGradient>
	<path class="st11" d="M45.6,39.3c1.4-2.6,3.2-4.1,4.3-5.9c1.3-2.4,3.9-9.1,2-14.5c0.9,3.4,0.6,6.8-2.2,8.6c0.9-2.4,1.5-7.6,0.5-12.3
		c-0.6-3.1-2.5-5.8-3.8-6.7c1.2,0.9,2.1,4,2,5.4C46,9.7,42.1,5.9,36.2,4.2c4.6,3,6.3,5.6,7.4,7.9c-1.2-1.3-3.3-2.6-4.8-2.7
		c2.1,1.6,5.7,6.3,5.3,13.5c-0.6-1.2-1.5-3-2.3-3.6c0.8,7,0.1,8.5-0.4,10.4c-0.1-0.9-0.4-1.5-0.6-1.9c0,0-0.1,2.2-1.5,5.3
		c-1.1,2.4-2.2,3.1-2.7,3c-0.1,0-0.2-0.1-0.2-0.1c0-0.3,0.1-0.6,0-0.8c0,0-0.5,0.2-0.8,0.6c-0.1,0.2-0.3,0.3-0.5,0.5
		c0,0,0.3-0.5,0.3-0.4c-0.2,0.1-0.4,0.3-0.6,0.5c-0.7,0.7-1.3,1.5-1.7,1.3c0.3-0.1,0.6-0.5,0.6-0.9c-0.3,0.2-1,0.7-2.5,1
		c-0.6,0.1-3.4,0.6-7-1.2c0.5-0.1,1.3-0.2,1.9,0.1c-0.6-0.7-2.1-0.5-3.1-0.9c-0.9-0.3-2.1-1.6-2.8-2.2c2.8,0.7,5.7,0.2,7.5-1
		c1.7-1.2,2.8-2,3.7-1.8c0.9,0.2,1.5-0.7,0.8-1.5c-0.7-0.8-2.4-1.9-4.8-1.3c-1.8,0.5-3.3,1.9-5.9,0.9c-0.2-0.1-0.3-0.1-0.5-0.2
		c-0.2-0.1,0.5,0.1,0.4,0c-0.5-0.2-1.4-0.6-1.6-0.7c0,0,0.4,0.1,0.3,0c-2.4-1.4-2.2-2.6-2.2-3.3c0-0.6,0.3-1.3,1-1.7
		c0.3,0.1,0.6,0.2,0.6,0.2s-0.2-0.2-0.3-0.4c0,0,0,0,0.1,0c0.3,0.1,0.9,0.3,1.2,0.5c0.4,0.2,0.6,0.4,0.6,0.4s0.1-0.1,0-0.3
		c0-0.1-0.2-0.4-0.6-0.6h0c0.2,0.1,0.5,0.2,0.7,0.4c0.1-0.4,0.2-0.8,0.1-1.5c-0.1-0.5-0.1-0.6-0.2-0.8c-0.1-0.2,0-0.2,0.2-0.1
		c0-0.1-0.1-0.2-0.2-0.4c0.1-0.6,3.7-2.5,4-2.7c0.4-0.3,0.8-0.7,1-1.2c0.2-0.3,0.3-0.8,0.3-1.4c0-0.5-0.3-0.8-4.2-0.7
		c-1.1,0-1.7-0.6-2.1-1.2c-0.1-0.1-0.2-0.2-0.2-0.4c-0.1-0.2-0.2-0.3-0.2-0.4c0.5-1.7,1.4-3.1,2.8-4.3c0.1-0.1-0.3,0-0.3,0
		c0.1-0.1,0.7-0.4,0.8-0.4c0.1-0.1-0.7-0.3-1.4-0.2c-0.7,0.1-0.8,0.2-1.2,0.4c0.1-0.2,0.6-0.4,0.5-0.4c-0.8,0.2-1.6,0.7-2.4,1.2
		c0-0.1,0-0.1,0-0.2c-0.4,0.2-1.2,0.9-1.4,1.4c0-0.1,0-0.2,0-0.3c-0.3,0.2-0.5,0.5-0.7,0.8c0,0,0,0,0,0c-2.2-0.6-4.2-0.4-5.8,0.1
		c-0.4-0.3-1-0.7-2-2.2C9,8.3,9,8.6,8.9,8.5C8.6,7.8,8.3,6.6,8.2,5.8c0,0-0.6,0.4-1,1.6C7.1,7.7,7.1,7.8,7,7.9c0,0,0-0.4,0-0.4
		C7,7.7,6.7,8,6.7,8.3C6.6,8.5,6.5,8.6,6.5,8.9c0,0,0,0,0,0c0-0.1,0-0.3,0-0.3c-0.2,0.5-0.3,1-0.5,1.6c-0.2,1-0.4,2.3-0.3,4
		c0,0.1,0,0.3,0,0.4c-0.6,0.8-1,1.5-1.2,1.9c-0.7,1.4-1.5,3.7-2.1,7.1c0,0,0.4-1.3,1.2-2.8c-0.6,1.8-1.1,4.7-0.8,9
		c0-0.1,0.1-1.2,0.5-2.7c0.2,2.9,0.8,6.4,3.1,10.2c1.7,2.9,6.2,9.7,17.4,12.2c-1.2-0.4-2-1.1-2-1.1s4.2,1.4,7.3,1.2
		c-1-0.2-1.2-0.6-1.2-0.6s10.9,0.6,14.7-4.5c-1.3,1.5-4.6,1.9-5.8,1.9c1.9-1.7,6-1.7,10.5-6.1c2.5-2.4,2.7-4.3,3-6
		C50,36.7,47.9,38,45.6,39.3z"/>
	<radialGradient id="SVGID_13_" cx="-1248.6355" cy="-1046.8035" r="5.0753" gradientTransform="matrix(6.7114 0 0 -6.5497 8411.2832 -6838.7705)" gradientUnits="userSpaceOnUse">
		<stop  offset="0.656" style="stop-color:#B02228;stop-opacity:0"/>
		<stop  offset="0.872" style="stop-color:#B02127;stop-opacity:0.658"/>
		<stop  offset="0.973" style="stop-color:#B21F24;stop-opacity:0.967"/>
		<stop  offset="0.984" style="stop-color:#B21F24"/>
	</radialGradient>
	<path class="st12" d="M45.6,39.3c1.4-2.6,3.2-4.1,4.3-5.9c1.3-2.4,3.9-9.1,2-14.5c0.9,3.4,0.6,6.8-2.2,8.6c0.9-2.4,1.5-7.6,0.5-12.3
		c-0.6-3.1-2.5-5.8-3.8-6.7c1.2,0.9,2.1,4,2,5.4C46,9.7,42.1,5.9,36.2,4.2c4.6,3,6.3,5.6,7.4,7.9c-1.2-1.3-3.3-2.6-4.8-2.7
		c2.1,1.6,5.7,6.3,5.3,13.5c-0.6-1.2-1.5-3-2.3-3.6c0.8,7,0.1,8.5-0.4,10.4c-0.1-0.9-0.4-1.5-0.6-1.9c0,0-0.1,2.2-1.5,5.3
		c-1.1,2.4-2.2,3.1-2.7,3c-0.1,0-0.2-0.1-0.2-0.1c0-0.3,0.1-0.6,0-0.8c0,0-0.5,0.2-0.8,0.6c-0.1,0.2-0.3,0.3-0.5,0.5
		c0,0,0.3-0.5,0.3-0.4c-0.2,0.1-0.4,0.3-0.6,0.5c-0.7,0.7-1.3,1.5-1.7,1.3c0.3-0.1,0.6-0.5,0.6-0.9c-0.3,0.2-1,0.7-2.5,1
		c-0.6,0.1-3.4,0.6-7-1.2c0.5-0.1,1.3-0.2,1.9,0.1c-0.6-0.7-2.1-0.5-3.1-0.9c-0.9-0.3-2.1-1.6-2.8-2.2c2.8,0.7,5.7,0.2,7.5-1
		c1.7-1.2,2.8-2,3.7-1.8c0.9,0.2,1.5-0.7,0.8-1.5c-0.7-0.8-2.4-1.9-4.8-1.3c-1.8,0.5-3.3,1.9-5.9,0.9c-0.2-0.1-0.3-0.1-0.5-0.2
		c-0.2-0.1,0.5,0.1,0.4,0c-0.5-0.2-1.4-0.6-1.6-0.7c0,0,0.4,0.1,0.3,0c-2.4-1.4-2.2-2.6-2.2-3.3c0-0.6,0.3-1.3,1-1.7
		c0.3,0.1,0.6,0.2,0.6,0.2s-0.2-0.2-0.3-0.4c0,0,0,0,0.1,0c0.3,0.1,0.9,0.3,1.2,0.5c0.4,0.2,0.6,0.4,0.6,0.4s0.1-0.1,0-0.3
		c0-0.1-0.2-0.4-0.6-0.6h0c0.2,0.1,0.5,0.2,0.7,0.4c0.1-0.4,0.2-0.8,0.1-1.5c-0.1-0.5-0.1-0.6-0.2-0.8c-0.1-0.2,0-0.2,0.2-0.1
		c0-0.1-0.1-0.2-0.2-0.4c0.1-0.6,3.7-2.5,4-2.7c0.4-0.3,0.8-0.7,1-1.2c0.2-0.3,0.3-0.8,0.3-1.4c0-0.5-0.3-0.8-4.2-0.7
		c-1.1,0-1.7-0.6-2.1-1.2c-0.1-0.1-0.2-0.2-0.2-0.4c-0.1-0.2-0.2-0.3-0.2-0.4c0.5-1.7,1.4-3.1,2.8-4.3c0.1-0.1-0.3,0-0.3,0
		c0.1-0.1,0.7-0.4,0.8-0.4c0.1-0.1-0.7-0.3-1.4-0.2c-0.7,0.1-0.8,0.2-1.2,0.4c0.1-0.2,0.6-0.4,0.5-0.4c-0.8,0.2-1.6,0.7-2.4,1.2
		c0-0.1,0-0.1,0-0.2c-0.4,0.2-1.2,0.9-1.4,1.4c0-0.1,0-0.2,0-0.3c-0.3,0.2-0.5,0.5-0.7,0.8c0,0,0,0,0,0c-2.2-0.6-4.2-0.4-5.8,0.1
		c-0.4-0.3-1-0.7-2-2.2C9,8.3,9,8.6,8.9,8.5C8.6,7.8,8.3,6.6,8.2,5.8c0,0-0.6,0.4-1,1.6C7.1,7.7,7.1,7.8,7,7.9c0,0,0-0.4,0-0.4
		C7,7.7,6.7,8,6.7,8.3C6.6,8.5,6.5,8.6,6.5,8.9c0,0,0,0,0,0c0-0.1,0-0.3,0-0.3c-0.2,0.5-0.3,1-0.5,1.6c-0.2,1-0.4,2.3-0.3,4
		c0,0.1,0,0.3,0,0.4c-0.6,0.8-1,1.5-1.2,1.9c-0.7,1.4-1.5,3.7-2.1,7.1c0,0,0.4-1.3,1.2-2.8c-0.6,1.8-1.1,4.7-0.8,9
		c0-0.1,0.1-1.2,0.5-2.7c0.2,2.9,0.8,6.4,3.1,10.2c1.7,2.9,6.2,9.7,17.4,12.2c-1.2-0.4-2-1.1-2-1.1s4.2,1.4,7.3,1.2
		c-1-0.2-1.2-0.6-1.2-0.6s10.9,0.6,14.7-4.5c-1.3,1.5-4.6,1.9-5.8,1.9c1.9-1.7,6-1.7,10.5-6.1c2.5-2.4,2.7-4.3,3-6
		C50,36.7,47.9,38,45.6,39.3z"/>
	<radialGradient id="SVGID_14_" cx="-1260.3771" cy="-1114.723" r="5.1813" gradientTransform="matrix(3.5497 -5.5886 -5.6322 -3.4436 -1770.1047 -10853.6582)" gradientUnits="userSpaceOnUse">
		<stop  offset="0.71" style="stop-color:#ED6624;stop-opacity:0"/>
		<stop  offset="0.835" style="stop-color:#ED6824;stop-opacity:0.489"/>
		<stop  offset="0.88" style="stop-color:#EE6D24;stop-opacity:0.665"/>
		<stop  offset="0.912" style="stop-color:#EF7624;stop-opacity:0.791"/>
		<stop  offset="0.938" style="stop-color:#F28223;stop-opacity:0.893"/>
		<stop  offset="0.96" style="stop-color:#F59123;stop-opacity:0.979"/>
		<stop  offset="0.966" style="stop-color:#F69622"/>
	</radialGradient>
	<path class="st13" d="M45.6,39.3c1.4-2.6,3.2-4.1,4.3-5.9c1.3-2.4,3.9-9.1,2-14.5c0.9,3.4,0.6,6.8-2.2,8.6c0.9-2.4,1.5-7.6,0.5-12.3
		c-0.6-3.1-2.5-5.8-3.8-6.7c1.2,0.9,2.1,4,2,5.4C46,9.7,42.1,5.9,36.2,4.2c4.6,3,6.3,5.6,7.4,7.9c-1.2-1.3-3.3-2.6-4.8-2.7
		c2.1,1.6,5.7,6.3,5.3,13.5c-0.6-1.2-1.5-3-2.3-3.6c0.8,7,0.1,8.5-0.4,10.4c-0.1-0.9-0.4-1.5-0.6-1.9c0,0-0.1,2.2-1.5,5.3
		c-1.1,2.4-2.2,3.1-2.7,3c-0.1,0-0.2-0.1-0.2-0.1c0-0.3,0.1-0.6,0-0.8c0,0-0.5,0.2-0.8,0.6c-0.1,0.2-0.3,0.3-0.5,0.5
		c0,0,0.3-0.5,0.3-0.4c-0.2,0.1-0.4,0.3-0.6,0.5c-0.7,0.7-1.3,1.5-1.7,1.3c0.3-0.1,0.6-0.5,0.6-0.9c-0.3,0.2-1,0.7-2.5,1
		c-0.6,0.1-3.4,0.6-7-1.2c0.5-0.1,1.3-0.2,1.9,0.1c-0.6-0.7-2.1-0.5-3.1-0.9c-0.9-0.3-2.1-1.6-2.8-2.2c2.8,0.7,5.7,0.2,7.5-1
		c1.7-1.2,2.8-2,3.7-1.8c0.9,0.2,1.5-0.7,0.8-1.5c-0.7-0.8-2.4-1.9-4.8-1.3c-1.8,0.5-3.3,1.9-5.9,0.9c-0.2-0.1-0.3-0.1-0.5-0.2
		c-0.2-0.1,0.5,0.1,0.4,0c-0.5-0.2-1.4-0.6-1.6-0.7c0,0,0.4,0.1,0.3,0c-2.4-1.4-2.2-2.6-2.2-3.3c0-0.6,0.3-1.3,1-1.7
		c0.3,0.1,0.6,0.2,0.6,0.2s-0.2-0.2-0.3-0.4c0,0,0,0,0.1,0c0.3,0.1,0.9,0.3,1.2,0.5c0.4,0.2,0.6,0.4,0.6,0.4s0.1-0.1,0-0.3
		c0-0.1-0.2-0.4-0.6-0.6h0c0.2,0.1,0.5,0.2,0.7,0.4c0.1-0.4,0.2-0.8,0.1-1.5c-0.1-0.5-0.1-0.6-0.2-0.8c-0.1-0.2,0-0.2,0.2-0.1
		c0-0.1-0.1-0.2-0.2-0.4c0.1-0.6,3.7-2.5,4-2.7c0.4-0.3,0.8-0.7,1-1.2c0.2-0.3,0.3-0.8,0.3-1.4c0-0.5-0.3-0.8-4.2-0.7
		c-1.1,0-1.7-0.6-2.1-1.2c-0.1-0.1-0.2-0.2-0.2-0.4c-0.1-0.2-0.2-0.3-0.2-0.4c0.5-1.7,1.4-3.1,2.8-4.3c0.1-0.1-0.3,0-0.3,0
		c0.1-0.1,0.7-0.4,0.8-0.4c0.1-0.1-0.7-0.3-1.4-0.2c-0.7,0.1-0.8,0.2-1.2,0.4c0.1-0.2,0.6-0.4,0.5-0.4c-0.8,0.2-1.6,0.7-2.4,1.2
		c0-0.1,0-0.1,0-0.2c-0.4,0.2-1.2,0.9-1.4,1.4c0-0.1,0-0.2,0-0.3c-0.3,0.2-0.5,0.5-0.7,0.8c0,0,0,0,0,0c-2.2-0.6-4.2-0.4-5.8,0.1
		c-0.4-0.3-1-0.7-2-2.2C9,8.3,9,8.6,8.9,8.5C8.6,7.8,8.3,6.6,8.2,5.8c0,0-0.6,0.4-1,1.6C7.1,7.7,7.1,7.8,7,7.9c0,0,0-0.4,0-0.4
		C7,7.7,6.7,8,6.7,8.3C6.6,8.5,6.5,8.6,6.5,8.9c0,0,0,0,0,0c0-0.1,0-0.3,0-0.3c-0.2,0.5-0.3,1-0.5,1.6c-0.2,1-0.4,2.3-0.3,4
		c0,0.1,0,0.3,0,0.4c-0.6,0.8-1,1.5-1.2,1.9c-0.7,1.4-1.5,3.7-2.1,7.1c0,0,0.4-1.3,1.2-2.8c-0.6,1.8-1.1,4.7-0.8,9
		c0-0.1,0.1-1.2,0.5-2.7c0.2,2.9,0.8,6.4,3.1,10.2c1.7,2.9,6.2,9.7,17.4,12.2c-1.2-0.4-2-1.1-2-1.1s4.2,1.4,7.3,1.2
		c-1-0.2-1.2-0.6-1.2-0.6s10.9,0.6,14.7-4.5c-1.3,1.5-4.6,1.9-5.8,1.9c1.9-1.7,6-1.7,10.5-6.1c2.5-2.4,2.7-4.3,3-6
		C50,36.7,47.9,38,45.6,39.3z"/>
	<radialGradient id="SVGID_15_" cx="-1249.59" cy="-1196.0543" r="1.6669" gradientTransform="matrix(6.7114 0 0 -4.206 8411.2832 -5016.4233)" gradientUnits="userSpaceOnUse">
		<stop  offset="0" style="stop-color:#E05A27;stop-opacity:0.1"/>
		<stop  offset="0.306" style="stop-color:#DE5926;stop-opacity:0.845"/>
		<stop  offset="0.556" style="stop-color:#B02228"/>
	</radialGradient>
	<path class="st14" d="M26.8,15.2c0-0.5-0.3-0.8-4.2-0.8c-1.6,0-2.3-1.4-2.6-1.9c-0.4,1.5-0.5,3-0.2,4.8c0.2,1.2,1.1,2.2,1.5,2.9
		c0.1,0.1,0.2,0.1,0.2,0.1c0.2-0.4,3.6-2.3,3.8-2.5C25.7,17.6,26.9,16.6,26.8,15.2L26.8,15.2z"/>
	<radialGradient id="SVGID_16_" cx="-1341.5608" cy="-1488.4998" r="1.4032" gradientTransform="matrix(6.402 -1.9188 -0.9275 -2.8087 7232.0049 -6740.4365)" gradientUnits="userSpaceOnUse">
		<stop  offset="0" style="stop-color:#E05A27;stop-opacity:0"/>
		<stop  offset="0.446" style="stop-color:#DD5A26;stop-opacity:0.8"/>
		<stop  offset="0.722" style="stop-color:#B02228"/>
	</radialGradient>
	<path class="st15" d="M21.5,14.8c0,0,1.3,0.7,1.5,1.1c0.1,0.1-0.7-0.2-0.6-0.1c0,0.1,1,0.6,1,0.8c0,0.2-0.5-0.2-0.8-0.2
		c0.2,0.1,0.4,0.4,0.3,0.5c-0.1,0.1-0.6,0.2-0.7,0.3c-1.2,0.8,1.7,1,2.8,0.4c1.1-0.6,1.7-1.4,1.8-1.5c0-0.1,0.4-1.3-1.8-0.9
		C23.5,15.4,22.6,15.3,21.5,14.8L21.5,14.8z"/>
	<radialGradient id="SVGID_17_" cx="-1248.2377" cy="-1041.8079" r="3.7766" gradientTransform="matrix(6.7114 0 0 -6.7114 8411.2832 -6968.4941)" gradientUnits="userSpaceOnUse">
		<stop  offset="0.463" style="stop-color:#F0B91C"/>
		<stop  offset="0.722" style="stop-color:#E36024"/>
		<stop  offset="0.782" style="stop-color:#DB5825"/>
		<stop  offset="0.876" style="stop-color:#C74127"/>
		<stop  offset="0.97" style="stop-color:#B02228"/>
	</radialGradient>
	<path class="st16" d="M39.7,44c-1.3,0.7-4.4,1.6-5.2,1.7c5.3-1.6,7.1-3.9,7.9-5.4c2.8-0.5,7.8-3,8-6c-0.2,4-3.5,6.7-5.9,8.3
		c-2.8,1.9-5.1,2-7.2,3.3C38,45.7,38.8,45.1,39.7,44z"/>
	<radialGradient id="SVGID_18_" cx="-1245.5886" cy="-1039.6698" r="4.5681" gradientTransform="matrix(6.7114 0 0 -6.7114 8411.2832 -6968.4941)" gradientUnits="userSpaceOnUse">
		<stop  offset="0.306" style="stop-color:#FFE300"/>
		<stop  offset="0.482" style="stop-color:#F8C91E"/>
		<stop  offset="0.836" style="stop-color:#E36024"/>
		<stop  offset="1" style="stop-color:#E36024"/>
	</radialGradient>
	<path class="st17" d="M51.8,18.9c1.7,5.4-1.1,7.8-2.2,8.5c1.5-4,2-9.1,0.4-13.5c-1.3-3.7-3.6-5.5-3.6-5.5c3.2,3.5,2.8,7.4,1.9,10.1
		c0.4,2.6-1,9.7,0.8,9.4c-0.4,4-2.2,8.9-2.9,10.4c1.3-2,3.1-3.9,4-5.5C51.7,29.9,53.6,24,51.8,18.9L51.8,18.9z"/>
	<radialGradient id="SVGID_19_" cx="-1246.9409" cy="-1041.4073" r="1.8573" gradientTransform="matrix(6.7114 0 0 -6.7114 8411.2832 -6968.4941)" gradientUnits="userSpaceOnUse">
		<stop  offset="8.900001e-02" style="stop-color:#FFFFFF"/>
		<stop  offset="0.115" style="stop-color:#FFFEF7"/>
		<stop  offset="0.151" style="stop-color:#FFFBE8"/>
		<stop  offset="0.193" style="stop-color:#FFF7D0"/>
		<stop  offset="0.239" style="stop-color:#FFF2AF"/>
		<stop  offset="0.289" style="stop-color:#FFEC85"/>
		<stop  offset="0.342" style="stop-color:#FFE643"/>
		<stop  offset="0.373" style="stop-color:#FFE300"/>
		<stop  offset="0.418" style="stop-color:#FFDB00"/>
		<stop  offset="0.494" style="stop-color:#F6C713"/>
		<stop  offset="0.538" style="stop-color:#F0B91C"/>
		<stop  offset="1" style="stop-color:#E36024"/>
	</radialGradient>
	<path class="st18" d="M45.3,20.2c0,0-0.7,1.4-0.7,4.1c-0.9-3.5-2.7-4.9-2.7-4.9c0.2,2.8,0.7,6.9-0.4,10.5c0.1,1,0.4,3.5-0.6,6.3
		c1.6-1.8,3.7-3.3,4.1-4.8c0,0,0-0.1,0-0.1c0.5,0.1,1.3-0.3,1.9-1c0.5-0.9,2-3.7,2.1-5.2C45.7,23.6,45.3,20.2,45.3,20.2z"/>
	<radialGradient id="SVGID_20_" cx="-1246.5809" cy="-1041.1829" r="3.3709" gradientTransform="matrix(6.7114 0 0 -6.7114 8411.2832 -6968.4941)" gradientUnits="userSpaceOnUse">
		<stop  offset="8.900001e-02" style="stop-color:#FFFFFF"/>
		<stop  offset="0.115" style="stop-color:#FFFEF7"/>
		<stop  offset="0.151" style="stop-color:#FFFBE8"/>
		<stop  offset="0.193" style="stop-color:#FFF7D0"/>
		<stop  offset="0.239" style="stop-color:#FFF2AF"/>
		<stop  offset="0.289" style="stop-color:#FFEC85"/>
		<stop  offset="0.342" style="stop-color:#FFE643"/>
		<stop  offset="0.373" style="stop-color:#FFE300"/>
		<stop  offset="0.418" style="stop-color:#FFDB00"/>
		<stop  offset="0.494" style="stop-color:#F6C713"/>
		<stop  offset="0.538" style="stop-color:#F0B91C"/>
		<stop  offset="0.741" style="stop-color:#E27327"/>
		<stop  offset="0.942" style="stop-color:#DD5A26"/>
	</radialGradient>
	<path class="st19" d="M44.7,29.4c4.4-6.1,2.9-12.5,2.4-14.5c6.3,10.3-0.2,22.3-1.5,24.3c-0.4,0.3-2.4,1-3.2,1.1
		c0.3-0.4,1-1.8,0.9-3.5c-1,2.3-4.3,4.1-6.2,4.7C40.3,39.2,44.1,32.6,44.7,29.4L44.7,29.4z"/>
	<radialGradient id="SVGID_21_" cx="-1247.1179" cy="-1042.0609" r="2.8538" gradientTransform="matrix(6.7114 0 0 -6.7114 8411.2832 -6968.4941)" gradientUnits="userSpaceOnUse">
		<stop  offset="8.900001e-02" style="stop-color:#FFFFFF"/>
		<stop  offset="0.106" style="stop-color:#FFFEF7"/>
		<stop  offset="0.13" style="stop-color:#FFFBE8"/>
		<stop  offset="0.158" style="stop-color:#FFF7D0"/>
		<stop  offset="0.189" style="stop-color:#FFF2AF"/>
		<stop  offset="0.222" style="stop-color:#FFEC85"/>
		<stop  offset="0.257" style="stop-color:#FFE643"/>
		<stop  offset="0.277" style="stop-color:#FFE300"/>
		<stop  offset="0.319" style="stop-color:#FFDB00"/>
		<stop  offset="0.39" style="stop-color:#F6C713"/>
		<stop  offset="0.43" style="stop-color:#F0B91C"/>
		<stop  offset="0.505" style="stop-color:#EA9E23"/>
		<stop  offset="0.632" style="stop-color:#E27327"/>
		<stop  offset="0.801" style="stop-color:#DF6427"/>
		<stop  offset="0.948" style="stop-color:#DD5A26"/>
	</radialGradient>
	<path class="st20" d="M44,24.8c0,0,0.4,5.3-2.3,9.6c0.7-4-0.7-6.6-0.7-6.6s-0.2,2.2-1.1,4.3c-1.5,3.6-2.8,4.4-3.3,4
		c-1.1,4.5-8.7,4.3-8.7,4.3c1.7,0.4,7.7,0.8,12.1-2.5c-0.2,0.6-1.6,3.3-4.8,4.7c3.2-0.2,7.4-3.6,8.2-5.8c0.1,1.7-0.5,2.8-0.8,3.5
		C47.8,34.3,44,24.8,44,24.8L44,24.8z"/>
	<linearGradient id="SVGID_22_" gradientUnits="userSpaceOnUse" x1="-1253.1644" y1="-1035.6055" x2="-1253.6436" y2="-1037.6932" gradientTransform="matrix(6.7081 -0.2122 -0.2122 -6.7081 8222.1562 -7182.3936)">
		<stop  offset="0" style="stop-color:#FFF038"/>
		<stop  offset="3.000000e-03" style="stop-color:#FFEC33"/>
		<stop  offset="5.100000e-02" style="stop-color:#FFD92F"/>
		<stop  offset="0.136" style="stop-color:#FCBC29"/>
		<stop  offset="0.214" style="stop-color:#F9A725"/>
		<stop  offset="0.281" style="stop-color:#F79B23"/>
		<stop  offset="0.33" style="stop-color:#F69622"/>
		<stop  offset="0.82" style="stop-color:#DE5B26;stop-opacity:5.900000e-02"/>
	</linearGradient>
	<path class="st21" d="M27,43.3c2.8-0.3,5.1-0.9,6.6-2.9c-2.5,0.4-4.5,0.2-5.7,0c0,0,2,0.1,4.5-0.6c2.9-0.7,6.5-2.4,8.6-6.3
		C40.8,42.8,31.4,44.6,27,43.3L27,43.3z"/>
	<linearGradient id="SVGID_23_" gradientUnits="userSpaceOnUse" x1="-1251.9583" y1="-1040.3682" x2="-1252.385" y2="-1039.2747" gradientTransform="matrix(6.7114 0 0 -6.7114 8411.2832 -6968.4941)">
		<stop  offset="0.169" style="stop-color:#B02228"/>
		<stop  offset="0.406" style="stop-color:#BF3628;stop-opacity:0.744"/>
		<stop  offset="0.623" style="stop-color:#C84228;stop-opacity:0.51"/>
		<stop  offset="1" style="stop-color:#E05A27;stop-opacity:0"/>
	</linearGradient>
	<path class="st22" d="M9.1,8.4C9,8.3,9,8.6,9,8.5C8.6,7.8,8.3,6.6,8.3,5.8c0,0-0.6,0.4-1,1.6C7.2,7.7,7.1,7.8,7.1,7.9
		c0,0,0-0.4,0-0.4C7,7.7,6.8,8,6.7,8.3C6.6,8.5,6.6,8.6,6.5,8.9c0,0.1,0-0.3,0-0.3c-1,2.5-0.9,6.2-0.8,6c2.4-3.1,5.3-4.1,5.3-4.1
		C10.7,10.3,9.9,9.7,9.1,8.4L9.1,8.4z"/>
	<linearGradient id="SVGID_24_" gradientUnits="userSpaceOnUse" x1="-1250.2294" y1="-1041.1935" x2="-1249.6609" y2="-1040.9434" gradientTransform="matrix(6.7114 0 0 -6.7114 8411.2832 -6968.4941)">
		<stop  offset="7.500000e-02" style="stop-color:#DD5A26"/>
		<stop  offset="0.298" style="stop-color:#E9986D"/>
		<stop  offset="0.667" style="stop-color:#F4D4AC"/>
		<stop  offset="1" style="stop-color:#F9F7C9"/>
	</linearGradient>
	<path class="st23" d="M25.7,17.6c0.2-0.2,0.9-0.8,1.1-1.5c-0.1,0.1-0.1-0.1-0.3,0c-0.3,0.3-0.9,0.9-1.6,1.4c0.2-0.2,0.6-0.5,0.6-0.6
		c-0.8,0.6-1.8,0.9-2.5,0.9c-0.1,0,0.6,0.1,1.2-0.4c-0.6,0.3-1.6,0.2-1.7,0.2c-0.1,0,1-0.1,0.9-0.2c-0.5-0.2-1.2-0.1-1.3,0
		c-0.3,0.1-0.5,0.3-0.7,0.6c0.1-0.1,0.2-0.3,0.3-0.5c-0.4,0.4-0.9,0.7-1,0.8c0.1-0.1,0.9-0.8,0.7-0.7c-0.1,0.1-0.5,0.3-0.7,0.5
		c-0.1,0,0.5-0.5,0.4-0.4c-1,0.2-0.9,0.8-0.9,0.8c0,0,0,0.1,0,0.1c0.1,0.3,0.5,0.9,0.9,1.5c0.3,0.3,0.4,0.7,0.4,0.6
		C21.6,19.9,25.4,17.8,25.7,17.6L25.7,17.6z"/>
	<linearGradient id="SVGID_25_" gradientUnits="userSpaceOnUse" x1="-1250.1776" y1="-1041.2567" x2="-1248.7104" y2="-1040.5198" gradientTransform="matrix(6.7114 0 0 -6.7114 8411.2832 -6968.4941)">
		<stop  offset="4.300000e-02" style="stop-color:#DD5A26"/>
		<stop  offset="0.258" style="stop-color:#ECA77C"/>
		<stop  offset="1" style="stop-color:#F9F7C9"/>
	</linearGradient>
	<path class="st24" d="M26.5,16.2c0,0-0.1-0.5,0-0.3c0,0.1,0,1-0.9,1.6c-0.2,0.1,0-0.3-0.2-0.1c-0.3,0.4-1.1,1.5-3.2,1.5
		c-0.1,0,0.8-0.4,0.7-0.4c-0.2,0.1-0.5,0.1-1.3,0.4c-0.1,0,0.7-0.5,0.6-0.4c-0.1,0-0.5,0.3-1.1,0.6c0.3-0.3,0.6-0.5,0.5-0.5
		c-0.4,0.2-0.7,0.5-0.9,0.8c0.1,0.2,0.3,0.3,0.4,0.6c0.3,0.3,0.3,0.7,0.4,0.6c0.8-0.9,3.7-2.3,4.4-3C26.6,16.8,26.3,16.9,26.5,16.2
		L26.5,16.2z"/>
	<radialGradient id="SVGID_26_" cx="-1249.6836" cy="-1070.2018" r="2.0174" gradientTransform="matrix(6.7114 0 0 -5.6564 8411.2832 -6021.1616)" gradientUnits="userSpaceOnUse">
		<stop  offset="0.5" style="stop-color:#E05A27;stop-opacity:0"/>
		<stop  offset="0.75" style="stop-color:#DE5926;stop-opacity:0.775"/>
		<stop  offset="0.95" style="stop-color:#B02228"/>
	</radialGradient>
	<path class="st25" d="M22.1,36.8c-3.8-1.2-8.2-3-8.5-8c-0.5-6.6,5.6-5.9,5.6-5.9c-0.2,0.1-0.7,0.6-0.8,1.1c-0.2,0.6-0.5,1.8,0.9,3
		c2.2,1.9-3.6,5.4,6.2,10C25.7,37.1,23.2,37.2,22.1,36.8L22.1,36.8z"/>
	<linearGradient id="SVGID_27_" gradientUnits="userSpaceOnUse" x1="-1249.6259" y1="-1040.928" x2="-1249.1984" y2="-1040.2699" gradientTransform="matrix(6.7114 0 0 -6.7114 8411.2832 -6968.4941)">
		<stop  offset="0" style="stop-color:#37383A"/>
		<stop  offset="0.651" style="stop-color:#7B3F3D"/>
		<stop  offset="1" style="stop-color:#DD5A26"/>
	</linearGradient>
	<path class="st26" d="M26.8,16.3c0.2-0.4,0.4-1.4-0.2-1.6c-0.5-0.1-0.9-0.2-1.6-0.2c0.3,0.1,1,0.2,1.2,0.6c0.4,0.7,0.1,1.9-0.1,2.3
		C26.5,17,26.7,16.7,26.8,16.3z"/>
	<radialGradient id="SVGID_28_" cx="-1283.5332" cy="-1148.1652" r="1.8499" gradientTransform="matrix(6.6195 -1.1054 -0.8383 -5.0188 7555.8486 -7154.9771)" gradientUnits="userSpaceOnUse">
		<stop  offset="0.5" style="stop-color:#E05A27;stop-opacity:0"/>
		<stop  offset="0.656" style="stop-color:#DD5A26"/>
		<stop  offset="0.815" style="stop-color:#B02228"/>
	</radialGradient>
	<path class="st27" d="M20.6,33.6c2.7,0.6,5.7,0.2,7.4-1c1.2-0.8,2.8-2,3.6-1.8c-0.9-0.2-1.5-0.3-2.3-0.3c-0.1,0-0.3,0-0.4,0
		c-0.3,0-0.5,0.1-0.8,0.1c-0.5,0.1-1,0.4-1.4,0.4c0,0,0.4-0.2,0.4-0.2c-0.2,0.1-0.5,0.1-0.8,0.2c-0.2,0-0.3,0.1-0.5,0.1
		c-5.4,1-10.3-1.9-10.3-1.9C15.2,30.6,17.6,32.9,20.6,33.6z"/>
	<radialGradient id="SVGID_29_" cx="-1255.4678" cy="-1037.8246" r="3.4847" gradientTransform="matrix(6.7087 -0.1799 -0.1765 -6.5819 8276.6709 -7051.8198)" gradientUnits="userSpaceOnUse">
		<stop  offset="0" style="stop-color:#FFE000;stop-opacity:0"/>
		<stop  offset="0.355" style="stop-color:#FED700;stop-opacity:0.515"/>
		<stop  offset="0.483" style="stop-color:#FED208;stop-opacity:0.7"/>
		<stop  offset="0.857" style="stop-color:#FED208;stop-opacity:0"/>
	</radialGradient>
	<path class="st28" d="M43.6,12.1c0,0,2,2.2,3,4.3c1,2.1,1.3,4.5,1.3,4.5s0.1-2-1-5.4C45.7,11.9,43.3,8.8,41,7
		c-1.6-1.2-4.7-2.7-4.7-2.7S41.7,7.5,43.6,12.1L43.6,12.1z"/>
	<radialGradient id="SVGID_30_" cx="-1272.771" cy="-983.7827" r="4.4648" gradientTransform="matrix(6.7114 0 0 6.7114 8562.5244 6612.5767)" gradientUnits="userSpaceOnUse">
		<stop  offset="0" style="stop-color:#ED6624"/>
		<stop  offset="1" style="stop-color:#F69622"/>
	</radialGradient>
	<path class="st29" d="M14,11.6c0,0-1,0.1-2.8,1.7c-0.8,0.6-1.4,1.3-1.9,1.8c-1.3,1.6-2.1,3.2-2.1,3.2s0.1-1,0.7-2.3
		c-1.9,3.1-2.7,7.5-2.7,7.5s-0.1-2,0.4-4.4c-0.2,0.6-0.4,1.3-0.6,2.4c-0.4,3.1,0,5.9,0,5.9S4.9,26.8,4.7,26c0.1,0.6,0.2,1.4,0.3,2.2
		c0.6,3,1.8,5.8,1.8,5.8S5.4,32,4.4,29.1c0.2,0.9,0.4,2,0.8,3.3c1.2,4.1,2.7,6.2,2.7,6.2s-1.2-1.1-2.7-5c-0.7-1.7-1-3.4-1.3-4.6
		c-0.1-0.9-0.2-1.7-0.4-2.9c0-0.4-0.1-0.9-0.1-1.3c-0.3,1.6-0.6,3-0.6,3s0.1-3.2,0.6-6.2c0.1-0.4,0.2-0.9,0.3-1.3
		c-0.5,1-0.9,1.7-0.9,1.7s0.7-1.8,1.3-3.3c-0.6,1.1-1,2-1,2s1.1-3.8,2.4-5.6c0.7-1,1.4-1.7,1.9-2.1c0.2-0.2,0.3-0.3,0.5-0.5
		c0.2-0.1,0.4-0.3,0.6-0.4C8.7,12.1,8.8,12,8.9,12c1.8-1.3,3.7-1.6,4.3-1.5c0,0-0.6,0-1.8,0.7c0.6-0.2,1.1-0.3,1.4-0.3
		c0,0-0.4,0.1-1.4,0.8c1.3-0.6,2.5-0.8,3-0.8c0,0-0.9,0.1-2.9,1.4c-0.1,0-0.1,0.1-0.2,0.1C12.5,11.8,13.6,11.6,14,11.6L14,11.6z
		 M8.4,22.9C8.1,23,7.6,24.4,8,27.5c0.3,2.5,1.3,3.9,1.3,3.9s-0.5-1-0.9-4.5C8.1,23.9,8.4,22.9,8.4,22.9L8.4,22.9z M9.4,20.5
		c-0.5,2.5,0.2,6.1,0.2,6.1s-0.1-3,0.5-6.1c0.7-3.3,1.7-4.3,1.7-4.3C11.3,16.3,9.9,18,9.4,20.5z M10.7,14.1c-0.3,0.3-0.6,0.7-0.8,1
		c-0.8,0.8-1.7,2.3-2.2,4.5c-0.9,4.2-0.2,6.7-0.2,6.7s0-3.9,0.9-7.2c0.1-0.5,0.3-0.9,0.4-1.3c-0.2,0.9-0.3,1.6-0.3,1.6s0.7-3,3.4-5.6
		c1.6-1.6,2.8-2,2.8-2C13.5,12,11.9,12.8,10.7,14.1z M9.7,23.1c-0.2,1.8,0.2,3.8,0.2,3.8s0-1.9,0.2-4.1c0.2-2.1,0.6-3,0.6-3
		C10.3,20,9.9,21.7,9.7,23.1L9.7,23.1z M9.9,16.8c-0.8,1.5-1.1,2.9-1.1,2.9s1.1-2.4,1.8-3.4c0.7-1,1.4-1.7,1.4-1.7
		C11.6,14.7,10.7,15.4,9.9,16.8z M6.2,22.2c-0.4,0.1-0.9,1.5-0.7,4.6c0.1,2.5,1.1,3.9,1.1,3.9s-0.5-1-0.6-4.5 M21,8
		c0,0-1.7,0.6-2.7,1.9c-1,1.2-1.2,2.5-1.2,2.5S18.2,9.5,21,8L21,8z M19.8,9.5c-1.2,1.6-1.5,2.8-1.5,2.8s1.4-3.3,4.8-4.6
		C23.1,7.7,21,7.9,19.8,9.5L19.8,9.5z M7.3,9.3c0.2-1.9,0.8-3,0.8-3s-1.8,2.7-0.7,6C7.4,12.2,7.1,11.2,7.3,9.3L7.3,9.3z M8.7,11.6
		c0,0-0.4-0.9-0.6-2.5C7.9,7.4,8.2,6.4,8.2,6.4S7.1,8.8,8.7,11.6L8.7,11.6z"/>
	<radialGradient id="SVGID_31_" cx="-3012.2979" cy="-2479.7908" r="1.1416" gradientTransform="matrix(-1.8497 6.3785 -4.3161 -1.1919 -16243.4961 16287.9023)" gradientUnits="userSpaceOnUse">
		<stop  offset="0" style="stop-color:#FFFFFF"/>
		<stop  offset="2.700000e-02" style="stop-color:#FFFBE8;stop-opacity:0.963"/>
		<stop  offset="0.102" style="stop-color:#FFF2B6;stop-opacity:0.857"/>
		<stop  offset="0.174" style="stop-color:#FFED8C;stop-opacity:0.756"/>
		<stop  offset="0.24" style="stop-color:#FFE967;stop-opacity:0.662"/>
		<stop  offset="0.3" style="stop-color:#FFE645;stop-opacity:0.578"/>
		<stop  offset="0.352" style="stop-color:#FFE42C;stop-opacity:0.506"/>
		<stop  offset="0.389" style="stop-color:#FFE421;stop-opacity:0.454"/>
		<stop  offset="0.809" style="stop-color:#FFE300;stop-opacity:0"/>
	</radialGradient>
	<path class="st30" d="M32.1,29.2c-0.3-0.3-1.4-1.2-2.6-1.2c-1.6-0.1-3,0.6-3,0.6s0.9-0.5,3-0.3C31,28.3,32.1,29.1,32.1,29.2z"/>
	<radialGradient id="SVGID_32_" cx="-3099.5918" cy="-2409.6226" r="1.1896" gradientTransform="matrix(-2.1248 5.5557 -4.3819 -1.5966 -17113.1133 13403.5342)" gradientUnits="userSpaceOnUse">
		<stop  offset="0" style="stop-color:#FFFFFF"/>
		<stop  offset="2.700000e-02" style="stop-color:#FFFBE8;stop-opacity:0.963"/>
		<stop  offset="0.102" style="stop-color:#FFF2B6;stop-opacity:0.857"/>
		<stop  offset="0.174" style="stop-color:#FFED8C;stop-opacity:0.756"/>
		<stop  offset="0.24" style="stop-color:#FFE967;stop-opacity:0.662"/>
		<stop  offset="0.3" style="stop-color:#FFE645;stop-opacity:0.578"/>
		<stop  offset="0.352" style="stop-color:#FFE42C;stop-opacity:0.506"/>
		<stop  offset="0.389" style="stop-color:#FFE421;stop-opacity:0.454"/>
		<stop  offset="0.809" style="stop-color:#FFE300;stop-opacity:0"/>
	</radialGradient>
	<path class="st31" d="M32.7,29.8c-0.3-0.4-1.2-1.2-2.7-1.5c-1.9-0.4-3.3,0.4-3.3,0.4s1.1-0.5,3.3-0.1C31.5,29,32.6,29.8,32.7,29.8
		L32.7,29.8z"/>
	<radialGradient id="SVGID_33_" cx="-3300.373" cy="-2597.9917" r="0.8922" gradientTransform="matrix(-1.5738 3.4906 -3.6087 -1.5483 -14538.208 7528.0308)" gradientUnits="userSpaceOnUse">
		<stop  offset="0" style="stop-color:#FFFFFF"/>
		<stop  offset="2.700000e-02" style="stop-color:#FFFBE8;stop-opacity:0.963"/>
		<stop  offset="0.102" style="stop-color:#FFF2B6;stop-opacity:0.857"/>
		<stop  offset="0.174" style="stop-color:#FFED8C;stop-opacity:0.756"/>
		<stop  offset="0.24" style="stop-color:#FFE967;stop-opacity:0.662"/>
		<stop  offset="0.3" style="stop-color:#FFE645;stop-opacity:0.578"/>
		<stop  offset="0.352" style="stop-color:#FFE42C;stop-opacity:0.506"/>
		<stop  offset="0.389" style="stop-color:#FFE421;stop-opacity:0.454"/>
		<stop  offset="0.809" style="stop-color:#FFE300;stop-opacity:0"/>
	</radialGradient>
	<path class="st32" d="M32.1,29.9c-0.2-0.2-0.7-0.5-1.5-0.8c-1.4-0.4-2.3,0-2.3,0s0.5-0.1,1.9,0.1C31.1,29.4,32.1,29.8,32.1,29.9z"/>
	<linearGradient id="SVGID_34_" gradientUnits="userSpaceOnUse" x1="-1271.9478" y1="-981.8349" x2="-1271.9478" y2="-977.7902" gradientTransform="matrix(6.7114 0 0 6.7114 8562.5244 6612.5767)">
		<stop  offset="0" style="stop-color:#E57C27"/>
		<stop  offset="0.5" style="stop-color:#DD5626"/>
		<stop  offset="0.647" style="stop-color:#C33A28"/>
		<stop  offset="0.75" style="stop-color:#B02228"/>
		<stop  offset="0.813" style="stop-color:#AB2026"/>
		<stop  offset="0.913" style="stop-color:#9C1C21"/>
		<stop  offset="1" style="stop-color:#8C161A"/>
	</linearGradient>
	<path class="st33" d="M49.5,37.8c-0.3,0.5-0.6,1.1-1.1,1.6c-1.2,1.4-2.6,2.5-3.8,3.4c-0.5,0.3-1,0.6-1.4,0.9l0-0.2h0
		c1.4-0.7,2.9-1.7,4.4-3.2C48.4,39.3,49,38.5,49.5,37.8L49.5,37.8z M7.2,7.7c0.1-0.1,0.1-0.3,0.2-0.5C7.4,7,7.5,6.7,7.6,6.6
		C7.5,6.8,7.3,7.1,7.2,7.4C7.2,7.5,7.2,7.6,7.2,7.7L7.2,7.7L7.2,7.7z M22,48.3c0,0,0.2,0.2,0.5,0.4c1.3,0.4,4.3,1.1,6.6,1
		c-0.3-0.1-0.5-0.1-0.7-0.2C25.5,49.4,22,48.3,22,48.3z M3.8,20.6c-0.1,0.1-0.1,0.2-0.2,0.4c0,0,0,0,0,0c-0.6,1.8-1.1,4.7-0.8,9
		c0,0,0-0.1,0-0.2c0,0.1,0,0.1,0,0.2c0-0.1,0-0.3,0.1-0.7C2.8,25.1,3.2,22.4,3.8,20.6z M6.6,37.2C4.3,33.3,3.6,29.8,3.5,27
		c0,0.2-0.1,0.3-0.1,0.5c0.2,2.8,0.9,6.3,3.1,10c1.7,2.9,6.2,9.7,17.4,12.2c-0.5-0.1-1-0.4-1.3-0.6C12.4,46.3,8.2,40,6.6,37.2
		L6.6,37.2z M42.7,44.5c0,0,0.1-0.1,0.1-0.1c-3.8,5.1-14.7,4.5-14.7,4.5s0,0.1,0.2,0.2c1.5,0,8.9,0.1,13-3.1c1-0.8,1.7-1.6,1.9-2.4
		c0,0,0,0-0.1,0C43,44,42.8,44.3,42.7,44.5L42.7,44.5z M4.9,16c-0.8,1.4-1.7,3.7-2.4,7.6c0,0,0-0.1,0.1-0.2c0,0,0,0.1,0,0.1
		c0,0,0.1-0.2,0.2-0.4c0.6-3.3,1.3-5.5,2.1-6.9C4.7,16.2,4.8,16.1,4.9,16L4.9,16z M6.6,8.7c0-0.3,0.1-0.4,0.2-0.6
		c0-0.1,0-0.1,0.1-0.2C6.8,8,6.7,8.1,6.7,8.2c0,0.1-0.1,0.2-0.1,0.2C6.6,8.5,6.6,8.6,6.6,8.7C6.6,8.7,6.6,8.7,6.6,8.7L6.6,8.7z
		 M5.9,14.4c0-0.1,0-0.3,0-0.4c-0.1-1.7,0.1-3,0.3-4c0.1-0.5,0.2-1,0.4-1.4c0,0,0-0.1,0-0.1h0c0,0.1-0.1,0.2-0.1,0.2c0,0,0,0,0,0
		c0,0,0,0.1,0,0.1c0,0.1-0.1,0.3-0.1,0.4C6.1,9.6,6.1,9.8,6,10c0,0,0,0.1,0,0.1c0,0,0,0.1,0,0.1c0,0,0,0,0,0.1
		c-0.1,0.4-0.2,0.9-0.2,1.5c-0.2,1.5-0.1,2.7-0.1,2.9C5.8,14.5,5.8,14.5,5.9,14.4L5.9,14.4z M43.1,43.4c-0.1,0-0.8,0.4-2,0.9
		c-2.2,0.9-3.7,1.6-3.8,1.8c0,0,0.6-0.4,2.5-1.2c2-0.8,3-1.3,3.2-1.4c0,0,0.1,0,0.1,0L43.1,43.4L43.1,43.4z"/>
	<radialGradient id="SVGID_35_" cx="1482.9377" cy="-5608.2803" r="2.3643" gradientTransform="matrix(0.1873 -6.7088 6.7088 0.1873 37364.9023 11042.8926)" gradientUnits="userSpaceOnUse">
		<stop  offset="0" style="stop-color:#ED6624"/>
		<stop  offset="1" style="stop-color:#F69622"/>
	</radialGradient>
	<path class="st34" d="M24.4,46.7C24.4,46.7,24.4,46.7,24.4,46.7 M24.4,46.6c0.1,0.4,1.5,0.9,4.6,0.7c2.5-0.1,3.9-1.1,3.9-1.1
		s-1,0.5-4.5,0.6C25.4,46.9,24.5,46.6,24.4,46.6z M22.5,45.6c2.5,0.6,5.6,0.1,5.6,0.1s-3,0-6.1-0.7c-3.3-0.8-4.3-1.8-4.2-1.8
		C17.9,43.7,20,45.1,22.5,45.6z M24.6,45.4c1.8,0.2,3.8,0,3.8,0s-1.9,0-4.1-0.3c-2.1-0.3-2.9-0.6-2.9-0.7
		C21.6,44.8,23.3,45.2,24.6,45.4z M18.4,45c1.5,0.7,2.9,0.9,2.9,0.9s-2.4-0.9-3.5-1.5c-1.1-0.7-2-1.2-2-1.3
		C16.1,43.6,17,44.4,18.4,45z"/>
	<radialGradient id="SVGID_36_" cx="-1257.4971" cy="-1037.1956" r="0.9307" gradientTransform="matrix(6.4221 1.9483 -1.3013 4.2899 6739.2808 6912.4058)" gradientUnits="userSpaceOnUse">
		<stop  offset="0.487" style="stop-color:#E57C27;stop-opacity:0"/>
		<stop  offset="0.853" style="stop-color:#F0BE1B"/>
	</radialGradient>
	<path class="st35" d="M16.8,10.5c0,0-0.4,0.5-0.7,0.9c-0.3,0.5-0.6,1-0.6,1s-1.6-1.2-3.1-1.4s-1.9-0.2-1.9-0.2S13,9.5,16.8,10.5
		L16.8,10.5z"/>
</svg>
