
<svg xmlns="http://www.w3.org/2000/svg" viewBox="0 0 55 55">
	<style type="text/css">
		.st0{fill:url(#SVGID_1_);filter:url(#defapp-filter-1);}
		.st1{fill:url(#SVGID_1_);filter:url(#defapp-filter-1);}
	</style>
	<linearGradient id="SVGID_1_" gradientUnits="userSpaceOnUse" x1="27.5" y1="2.9993" x2="27.5" y2="52.0007">
		<stop offset="0" style="stop-color:#FF4411"/>
		<stop offset="1" style="stop-color:#ff9900"/>
	</linearGradient>
	<filter filterUnits="objectBoundingBox" id="defapp-filter-1">
		<feOffset dx="0" dy=".5" in="SourceAlpha" result="defappShadowOffsetOuter1"></feOffset>
		<feGaussianBlur stdDeviation=".5" in="defappShadowOffsetOuter1" result="defappShadowBlurOuter1"></feGaussianBlur>
		<feColorMatrix values="0 0 0 0 0   0 0 0 0 0   0 0 0 0 0  0 0 0 0.5 0" type="matrix" in="defappShadowBlurOuter1" result="defappShadowMatrixOuter1"></feColorMatrix>
		<feMerge>
			<feMergeNode in="defappShadowMatrixOuter1"/>
			<feMergeNode in="SourceGraphic"/>
		</feMerge>
	</filter>
	<circle class="st1" cx="26.9" cy="25.5" r="7.3"/>
	<path class="st0" d="M17.5,35.4L17.5,35.4c-2.6-2.5-4.2-6-4.2-9.9c0-7.5,6.1-13.6,13.6-13.6c7.5,0,13.6,6.1,13.6,13.6
		c0,3.6-1.4,7-4,9.6c-1.3,1.3-2.9,2.3-4.6,3L47,53.2l7.6-7.6l-7-7c2.4-3.9,3.7-8.3,3.7-13C51.4,12,40.4,1,26.9,1
		C13.4,1,2.4,12,2.4,25.5S13.4,50,26.9,50c1.6,0,3.3-0.2,4.8-0.5L17.5,35.4z"/>
</svg>
