
<svg xmlns="http://www.w3.org/2000/svg" viewBox="0 0 55 55">
	<style type="text/css">
		.st0{fill:#fff;filter:url(#defapp-filter-1);}
		.st1{fill:#9E77B5;}
		.st2{fill:#DA7CB3;}
		.st3{fill:#EE4097;}
		.st4{fill:#B94B9C;}
		.st5{fill:url(#SVGID_1_);}
	</style>
	<filter filterUnits="objectBoundingBox" id="defapp-filter-1">
		<feOffset dx="0" dy=".5" in="SourceAlpha" result="defappShadowOffsetOuter1"></feOffset>
		<feGaussianBlur stdDeviation=".5" in="defappShadowOffsetOuter1" result="defappShadowBlurOuter1"></feGaussianBlur>
		<feColorMatrix values="0 0 0 0 0   0 0 0 0 0   0 0 0 0 0  0 0 0 0.5 0" type="matrix" in="defappShadowBlurOuter1" result="defappShadowMatrixOuter1"></feColorMatrix>
		<feMerge>
			<feMergeNode in="defappShadowMatrixOuter1"/>
			<feMergeNode in="SourceGraphic"/>
		</feMerge>
	</filter>
	<radialGradient id="SVGID_1_" cx="27.5" cy="21.4294" r="21.7353" fx="27.4397" fy="5.7059" gradientTransform="matrix(1 0 0 0.8588 0 3.0248)" gradientUnits="userSpaceOnUse">
		<stop  offset="0" style="stop-color:#fff"/>
		<stop  offset="0.8999" style="stop-color:#fff;stop-opacity:0"/>
	</radialGradient>
	<circle class="st0" cx="27.5" cy="26.5" r="25.6"/>
	<circle class="st1" cx="27.5" cy="26.5" r="8.3"/>
	<path class="st2" d="M17.9,31.3c-0.7-1.5-1.2-3.1-1.2-4.8c0-5.9,4.7-10.7,10.6-10.8v0h22.6c-4-8.3-12.5-14.1-22.4-14.1 C19,1.6,11.4,5.9,7,12.5L17.9,31.3z"/>
	<path class="st3" d="M28.1,15.6c1.6,0.1,3.3,0.6,4.8,1.4c5.1,3,6.8,9.5,4,14.6l0,0L25.5,51.2c9.2,0.7,18.4-3.7,23.4-12.3 c4.3-7.4,4.4-16,1-23.2L28.1,15.6z"/>
	<path class="st4" d="M36.5,32.4c-0.9,1.4-2.1,2.5-3.6,3.4C27.8,38.7,21.3,37,18.3,32l0,0L7,12.5C1.8,20.1,1,30.3,6,38.9 c4.3,7.4,11.7,11.8,19.6,12.4L36.5,32.4z"/>
	<circle class="st5" cx="27.5" cy="26.5" r="24.8"/>
</svg>
