<svg xmlns="http://www.w3.org/2000/svg" width="0" height="0">

	<svg id="icon-karaqu" viewBox="0 0 17 17">
		<style type="text/css">
			.st0{fill:#333;}
		</style>
		<path class="st0" d="M16.8,2.2c-0.4-0.6-1.4-1.1-3.1-1.4c-1.4-0.3-3.2-0.4-5.1-0.4c-1.9,0-3.7,0.1-5.2,0.4C2.6,0.9,2,1.1,1.4,1.3
			c-0.6,0.3-1,0.6-1.2,0.9C0,2.6-0.1,3.1,0,3.7c0.1,0.5,0.3,1.2,0.5,2c0.5,1.4,1.3,3.1,2.3,4.8c0.9,1.6,2,3.1,2.9,4.2
			c0.5,0.6,1,1.1,1.4,1.4c0.5,0.4,1,0.6,1.4,0.6c0.7,0,1.7-0.6,2.8-2c0.9-1.1,1.9-2.5,2.9-4.2c1-1.7,1.8-3.4,2.3-4.8
			c0.3-0.8,0.5-1.4,0.5-2C17.1,3.1,17,2.6,16.8,2.2z M15.9,4.9c-0.4-0.2-0.9,0-1,0.2c-0.7,2.7-2.9,6.6-5,8.7c-0.2,0.3,0,0.8,0.3,1
			c-0.6,0.6-1.2,1-1.7,1c-0.4,0-1-0.4-1.7-1c0.2-0.1,0.6-0.5,0.3-1c-2.1-1.9-4.6-6.9-5-8.7c-0.2-0.3-0.7-0.4-1-0.2
			C0.9,4.3,0.7,3.1,1,2.7C1.3,2.2,2.2,2,2.8,1.8c0,0.4,0.3,0.8,0.7,0.8c2.5-0.7,7.6-0.7,10,0l0,0c0.4,0,0.7-0.4,0.7-0.8
			C15.1,2,15.8,2.3,16,2.7C16.2,3.1,16.2,3.9,15.9,4.9z"/>
		<path class="st0" d="M4.5,4.6c-0.6,1.1,2.7,7,4,7c1.3,0,4.6-5.9,4-7C11.9,3.6,5.1,3.6,4.5,4.6z"/>
	</svg>

	<svg id="icon-go-prev" viewBox="0 0 20 20">
		<style type="text/css">
			.st0{fill:none;stroke:#333;stroke-width:2;stroke-linecap:round;stroke-linejoin:round;stroke-miterlimit:10;}
		</style>
		<polyline class="st0" points="16,10 4,10 8,5 "/>
		<polyline class="st0" points="16,10 4,10 8,15 "/>
	</svg>

	<svg id="icon-go-next" viewBox="0 0 20 20">
		<style type="text/css">
			.st0{fill:none;stroke:#333;stroke-width:2;stroke-linecap:round;stroke-linejoin:round;stroke-miterlimit:10;}
		</style>
		<polyline class="st0" points="4,10 16,10 12,15 "/>
		<polyline class="st0" points="4,10 16,10 12,5 "/>
	</svg>

	<svg id="icon-reload" viewBox="0 0 20 20">
		<style type="text/css">
			.st0{fill:none;stroke:#333;stroke-width:2;stroke-linecap:round;stroke-linejoin:round;stroke-miterlimit:10;}
		</style>
		<polyline class="st0" points="11,8 16,8 16,3 "/>
		<path class="st0" d="M15.9,11c-0.5,2.8-2.9,5-5.9,5c-3.3,0-6-2.7-6-6s2.7-6,6-6c2.6,0,4.8,1.7,5.7,4"/>
	</svg>

	<svg id="icon-account" viewBox="0 0 20 20">
		<style type="text/css">
			.st0{fill:#fff;}
			.st1{fill:url(#SVGID_1_);}
		</style>
		<circle class="st0" cx="10" cy="10.1" r="9.9"/>
		<radialGradient id="SVGID_1_" cx="10" cy="777.1912" r="9.1592" gradientTransform="matrix(1 0 0 1 0 -768.8898)" gradientUnits="userSpaceOnUse">
			<stop  offset="0" style="stop-color:#CFD4EF"/>
			<stop  offset="1" style="stop-color:#7F849F"/>
		</radialGradient>
		<path class="st1" d="M10,0.1c-5.5,0-10,4.5-10,10c0,2.5,0.9,4.7,2.4,6.5c0.3-0.3,0.7-0.6,1.2-0.8c1.5-0.7,2.1-0.8,3-0.9
			c0.8-0.1,1-0.4,1.2-1.2c0.1-0.8,0.2-0.8,0.2-1.2c-0.5-0.3-0.7-1-0.7-1.3c0-0.3-0.2-0.7-0.1-1c-0.5,0.1-0.4-0.5-0.5-0.8
			C6.5,9.1,6.2,8.4,6.2,8C6.1,7.5,6.3,7.4,6.5,7.5C6.3,6.8,6.4,6,6.3,5.5C6.2,5,6,3.7,7,3.4c0.3-0.1,0.5-0.6,1.2-0.8
			C8.7,2.4,9.3,2,10,2c0.7,0,1.3,0.4,1.9,0.6c0.6,0.2,0.8,0.7,1.2,0.8c1,0.2,0.7,1.6,0.7,2.1c-0.1,0.5,0,1.3-0.2,2.1
			c0.3-0.2,0.4,0,0.4,0.4c-0.1,0.4-0.3,1.2-0.4,1.3c-0.1,0.3-0.1,0.9-0.5,0.8c0,0.3-0.1,0.7-0.1,1c0,0.3-0.2,1-0.7,1.3
			c0,0.4,0.1,0.5,0.2,1.2c0.1,0.8,0.3,1.1,1.2,1.2c0.8,0.1,1.8,0.3,3,0.9c0.5,0.2,0.9,0.5,1.2,0.8c1.5-1.8,2.4-4,2.4-6.5
			C20,4.5,15.5,0.1,10,0.1z"/>
	</svg>

	<svg id="icon-dots" viewBox="0 0 20 20">
		<style type="text/css">
			.st0{fill:#333;stroke:#333;stroke-width:2;stroke-linecap:round;stroke-linejoin:round;stroke-miterlimit:10;}		</style>
		<circle class="st0" cx="10" cy="10" r=".75"/>
		<circle class="st0" cx="10" cy="15" r=".75"/>
		<circle class="st0" cx="10" cy="5" r=".75"/>
	</svg>

</svg>