<svg xmlns="http://www.w3.org/2000/svg" width="0" height="0">

	<svg id="negative-corner" viewBox="0 0 6 6">
		<path fill="#eee" d="M0,6h6V0C6,3.3,3.3,6,0,6z"/>
	</svg>

	<svg id="icon-close" viewBox="0 0 13 13">
		<style type="text/css">
			.st0{fill:none;stroke:#333;stroke-width:1.5;stroke-miterlimit:10;}
		</style>
		<line class="st0" x1="3" y1="3" x2="10" y2="10"/>
		<line class="st0" x1="10" y1="3" x2="3" y2="10"/>
	</svg>

	<svg id="icon-defiant-js" viewBox="0 0 17 17">
		<style type="text/css">
			.st0{fill:#333;}
		</style>
		<polygon class="st0" points="7.1,3.4 12.2,8.5 7.1,13.7 8.4,15.1 15,8.5 8.5,2 "/>
		<path class="st0" d="M6.1,5.7c0-2.8,0-3.7-2-3.7C3.8,2,2.9,2,2.9,2v1.8c0,0,0.4,0,0.7,0C4,3.8,4.4,3.9,4.4,5c0,1.1-0.1,3.5,1.1,3.5
			c-1.3,0-1.1,2.3-1.1,3.5S4,13.2,3.7,13.2c-0.3,0-0.7,0-0.7,0v1.8c0,0,0.9,0,1.2,0c1.9,0,2-1,2-3.7c0-1.8,0.6-1.9,1.5-1.9V8.6V8.5
			V7.6C6.7,7.6,6.1,7.5,6.1,5.7z"/>
	</svg>

	<svg id="icon-karaqu-cli" viewBox="0 0 17 17">
		<style type="text/css">
			.st0{fill:#333;}
		</style>
		<path class="st0" d="M5.1,3.4C4.5,3.5,4,3.5,3.6,3.8C3.3,4,3.2,4.5,3.1,5C3.1,5.4,3,5.7,2.8,6.1c0.9,2.9,2.3,6,4.9,8.7C7,11.8,5.8,7,5.7,3.4 C5.5,3.4,5.3,3.4,5.1,3.4z"/>
		<path class="st0" d="M2.4,6.6C2.3,6.7,2.1,6.9,1.9,7.1C1.5,7.4,1.1,7.8,1.1,8.3C1,8.9,1.4,9.8,2.3,10.8c1.2,1.4,3.1,2.8,4.4,3.6 C4.5,11.9,3.3,9.1,2.4,6.6z"/>
		<path class="st0" d="M10.9,3.3c-0.4-0.1-0.7-0.4-1.1-0.7C9.4,2.3,9,2,8.5,2l0,0C8.1,2,7.7,2.3,7.3,2.6C7,2.8,6.7,3.1,6.3,3.2c0,0-0.1,0-0.1,0 C6.3,7,7.5,11.9,8.3,14.9C9.4,11.7,10.2,8,10.9,3.3C10.9,3.3,10.9,3.3,10.9,3.3z"/>
		<path class="st0" d="M12,14.7c0.6-0.1,1.1-0.5,1.1-1c0-0.4,0-0.7,0-1.1c-1.2,1-2.5,1.8-3.5,2.4C10.5,14.9,11.3,14.9,12,14.7z"/>
		<path class="st0" d="M14.6,6.6c-0.1-0.1-0.1-0.2-0.2-0.3C14.2,6,14,5.6,14,5.1c-0.1-0.5-0.2-1-0.6-1.4c-0.3-0.3-0.8-0.3-1.3-0.3 c-0.2,0-0.4,0-0.7,0C10.7,8,9.9,11.7,8.8,14.8C11.4,12.5,13.3,9.7,14.6,6.6z"/>
		<path class="st0" d="M3.8,13.8c0,0.6,0.5,0.9,1.1,1C5.5,14.9,6.1,15,6.7,15c-0.9-0.5-2-1.3-3-2.1C3.8,13.2,3.8,13.5,3.8,13.8z"/>
		<path class="st0" d="M16,8.2c0-0.4-0.4-0.7-0.8-1C15.1,7.1,15,7.1,15,7c-1.1,2.6-2.6,4.9-4.5,7c1.4-0.8,3.1-2.1,4.2-3.3C15.6,9.7,16,8.8,16,8.2z "/>
	</svg>

	<svg id="icon-midi-fur-alles" viewBox="0 0 17 17">
		<style type="text/css">
			.st0{fill:#333;}
		</style>
		<path class="st0" d="M12.9,2H4.1C3,2,2,3,2,4.1v8.9c0,1.1,0.9,2,2,2h8.9c1.1,0,2-0.9,2-2l0-8.9C15,2.9,14.1,2,12.9,2L12.9,2z M6.8,10.1
			c0.3,0,0.6-0.3,0.6-0.6v-7h2.1v7c0,0.3,0.3,0.6,0.6,0.6h0.3v4.4h-4v-4.4H6.8z M2.5,12.9V4.1c0-0.9,0.7-1.6,1.6-1.6h1v7
			c0,0.3,0.3,0.6,0.6,0.6H6l0,4.4h-2C3.2,14.5,2.5,13.8,2.5,12.9L2.5,12.9z M14.5,12.9c0,0.9-0.7,1.6-1.6,1.6h-2v-4.4h0.3
			c0.3,0,0.6-0.3,0.6-0.6v-7h1c0.9,0,1.6,0.7,1.6,1.6L14.5,12.9z"/>
	</svg>

	<svg id="icon-karaqu" viewBox="0 0 17 17">
		<style type="text/css">
			.st0{fill:#333;}
		</style>
		<path class="st0" d="M16.8,2.2c-0.4-0.6-1.4-1.1-3.1-1.4c-1.4-0.3-3.2-0.4-5.1-0.4c-1.9,0-3.7,0.1-5.2,0.4C2.6,0.9,2,1.1,1.4,1.3
			c-0.6,0.3-1,0.6-1.2,0.9C0,2.6-0.1,3.1,0,3.7c0.1,0.5,0.3,1.2,0.5,2c0.5,1.4,1.3,3.1,2.3,4.8c0.9,1.6,2,3.1,2.9,4.2
			c0.5,0.6,1,1.1,1.4,1.4c0.5,0.4,1,0.6,1.4,0.6c0.7,0,1.7-0.6,2.8-2c0.9-1.1,1.9-2.5,2.9-4.2c1-1.7,1.8-3.4,2.3-4.8
			c0.3-0.8,0.5-1.4,0.5-2C17.1,3.1,17,2.6,16.8,2.2z M15.9,4.9c-0.4-0.2-0.9,0-1,0.2c-0.7,2.7-2.9,6.6-5,8.7c-0.2,0.3,0,0.8,0.3,1
			c-0.6,0.6-1.2,1-1.7,1c-0.4,0-1-0.4-1.7-1c0.2-0.1,0.6-0.5,0.3-1c-2.1-1.9-4.6-6.9-5-8.7c-0.2-0.3-0.7-0.4-1-0.2
			C0.9,4.3,0.7,3.1,1,2.7C1.3,2.2,2.2,2,2.8,1.8c0,0.4,0.3,0.8,0.7,0.8c2.5-0.7,7.6-0.7,10,0l0,0c0.4,0,0.7-0.4,0.7-0.8
			C15.1,2,15.8,2.3,16,2.7C16.2,3.1,16.2,3.9,15.9,4.9z"/>
		<path class="st0" d="M4.5,4.6c-0.6,1.1,2.7,7,4,7c1.3,0,4.6-5.9,4-7C11.9,3.6,5.1,3.6,4.5,4.6z"/>
	</svg>

	<svg id="icon-wikipedia" viewBox="0 0 17 17">
		<style type="text/css">
			.st0{fill:#333;}
		</style>
		<path class="st0" d="M16.9,3h-3.3h-0.1v0.1v0.4v0.1h0.1h0.2c0.3,0,0.5,0.1,0.6,0.4c0.1,0.2,0.1,0.5,0,0.7l-3.6,6.7l-1.7-4l1.6-2.9
			c0.3-0.6,0.9-1,1.6-1h0.1h0.1V3.5V3.1V3h-0.1H9.2H9.1v0.1v0.4v0.1h0.1h0.2C9.7,3.6,9.9,3.7,10,4c0.1,0.2,0.1,0.5,0,0.7L8.9,6.8
			l-1-2.4C7.8,4.2,7.9,4,8,3.9c0.1-0.2,0.3-0.2,0.5-0.2h0.3h0.1V3.5V3.1V3H8.7H4.8H4.6v0.1v0.4v0.1h0.1h0.1c0.8,0,1.5,0.5,1.8,1.2
			l1.5,3.6l-1.7,3.1l-2.9-7C3.4,4.2,3.4,4,3.5,3.9C3.6,3.7,3.8,3.6,4,3.6h0.4h0.1V3.5V3.1V3H4.4H0.1H0v0.1v0.4v0.1h0.1h0.3
			c0.8,0,1.5,0.5,1.8,1.2l3.4,8.1c0.1,0.1,0.2,0.2,0.4,0.2c0.1,0,0.3-0.1,0.3-0.2l0.4-0.8L8.3,9l1.6,3.9c0.1,0.1,0.2,0.2,0.4,0.2
			c0.1,0,0.3-0.1,0.3-0.2l0.4-0.8l4.1-7.5c0.3-0.6,0.9-1,1.6-1h0.1H17V3.5V3.1V3L16.9,3L16.9,3L16.9,3z"/>
	</svg>

	<svg id="icon-go-prev" viewBox="0 0 20 20">
		<style type="text/css">
			.st0{fill:none;stroke:#333;stroke-width:2;stroke-linecap:round;stroke-linejoin:round;stroke-miterlimit:10;}
		</style>
		<polyline class="st0" points="16,10 4,10 8,5 "/>
		<polyline class="st0" points="16,10 4,10 8,15 "/>
	</svg>

	<svg id="icon-go-next" viewBox="0 0 20 20">
		<style type="text/css">
			.st0{fill:none;stroke:#333;stroke-width:2;stroke-linecap:round;stroke-linejoin:round;stroke-miterlimit:10;}
		</style>
		<polyline class="st0" points="4,10 16,10 12,15 "/>
		<polyline class="st0" points="4,10 16,10 12,5 "/>
	</svg>

	<svg id="icon-reload" viewBox="0 0 20 20">
		<style type="text/css">
			.st0{fill:none;stroke:#333;stroke-width:2;stroke-linecap:round;stroke-linejoin:round;stroke-miterlimit:10;}
		</style>
		<polyline class="st0" points="11,8 16,8 16,3 "/>
		<path class="st0" d="M15.9,11c-0.5,2.8-2.9,5-5.9,5c-3.3,0-6-2.7-6-6s2.7-6,6-6c2.6,0,4.8,1.7,5.7,4"/>
	</svg>

	<svg id="icon-account" viewBox="0 0 20 20">
		<style type="text/css">
			.st0{fill:#fff;}
			.st1{fill:url(#SVGID_1_);}
		</style>
		<circle class="st0" cx="10" cy="10.1" r="9.9"/>
		<radialGradient id="SVGID_1_" cx="10" cy="777.1912" r="9.1592" gradientTransform="matrix(1 0 0 1 0 -768.8898)" gradientUnits="userSpaceOnUse">
			<stop  offset="0" style="stop-color:#CFD4EF"/>
			<stop  offset="1" style="stop-color:#7F849F"/>
		</radialGradient>
		<path class="st1" d="M10,0.1c-5.5,0-10,4.5-10,10c0,2.5,0.9,4.7,2.4,6.5c0.3-0.3,0.7-0.6,1.2-0.8c1.5-0.7,2.1-0.8,3-0.9
			c0.8-0.1,1-0.4,1.2-1.2c0.1-0.8,0.2-0.8,0.2-1.2c-0.5-0.3-0.7-1-0.7-1.3c0-0.3-0.2-0.7-0.1-1c-0.5,0.1-0.4-0.5-0.5-0.8
			C6.5,9.1,6.2,8.4,6.2,8C6.1,7.5,6.3,7.4,6.5,7.5C6.3,6.8,6.4,6,6.3,5.5C6.2,5,6,3.7,7,3.4c0.3-0.1,0.5-0.6,1.2-0.8
			C8.7,2.4,9.3,2,10,2c0.7,0,1.3,0.4,1.9,0.6c0.6,0.2,0.8,0.7,1.2,0.8c1,0.2,0.7,1.6,0.7,2.1c-0.1,0.5,0,1.3-0.2,2.1
			c0.3-0.2,0.4,0,0.4,0.4c-0.1,0.4-0.3,1.2-0.4,1.3c-0.1,0.3-0.1,0.9-0.5,0.8c0,0.3-0.1,0.7-0.1,1c0,0.3-0.2,1-0.7,1.3
			c0,0.4,0.1,0.5,0.2,1.2c0.1,0.8,0.3,1.1,1.2,1.2c0.8,0.1,1.8,0.3,3,0.9c0.5,0.2,0.9,0.5,1.2,0.8c1.5-1.8,2.4-4,2.4-6.5
			C20,4.5,15.5,0.1,10,0.1z"/>
	</svg>

	<svg id="icon-dots" viewBox="0 0 20 20">
		<style type="text/css">
			.st0{fill:#333;stroke:#333;stroke-width:2;stroke-linecap:round;stroke-linejoin:round;stroke-miterlimit:10;}		</style>
		<circle class="st0" cx="10" cy="10" r=".75"/>
		<circle class="st0" cx="10" cy="15" r=".75"/>
		<circle class="st0" cx="10" cy="5" r=".75"/>
	</svg>

</svg>